<?xml version="1.0" encoding="iso-8859-1"?>
<!-- Generator: Adobe Illustrator 19.0.0, SVG Export Plug-In . SVG Version: 6.00 Build 0)  -->
<svg version="1.1" id="Capa_1" xmlns="http://www.w3.org/2000/svg" xmlns:xlink="http://www.w3.org/1999/xlink" x="0px" y="0px"
	 viewBox="0 0 512.009 512.009" style="enable-background:new 0 0 512.009 512.009;" xml:space="preserve">
<rect x="0.044" y="88.35" style="fill:#0D529E;" width="511.921" height="423.658"/>
<path style="fill:#90D1F3;" d="M476.66,450.216V53.036H35.349v423.658h185.351L256.004,512l35.305-35.305h158.872
	C464.797,476.695,476.66,464.841,476.66,450.216z"/>
<g>
	<polygon style="fill:#269BD8;" points="256.004,512 256.004,53.036 35.349,53.036 35.349,476.695 220.699,476.695 	"/>
	<polygon style="fill:#269BD8;" points="423.702,220.735 406.05,203.082 379.571,229.561 344.266,194.256 300.135,238.387 
		300.135,256.039 423.702,256.039 	"/>
</g>
<polygon style="fill:#FFFFFF;" points="423.702,220.735 406.05,203.082 379.571,229.561 344.266,194.256 300.135,238.387 
	300.135,150.125 423.702,150.125 "/>
<path style="fill:#269BD8;" d="M476.66,450.216L476.66,450.216c0-14.625-11.854-26.479-26.479-26.479h-26.479V0.079h26.479
	c14.625,0,26.479,11.854,26.479,26.479V450.216z"/>
<polygon style="fill:#90D1F3;" points="211.873,229.561 185.395,203.082 158.916,229.561 123.611,194.256 79.48,238.387 
	79.48,256.039 211.873,256.039 "/>
<polygon style="fill:#FFFFFF;" points="79.48,238.387 123.611,194.256 158.916,229.561 185.395,203.082 211.873,229.561 
	211.873,150.125 79.48,150.125 "/>
<g>
	<rect x="150.046" y="176.612" style="fill:#591E00;" width="17.652" height="17.652"/>
	<rect x="106.003" y="282.527" style="fill:#591E00;" width="17.652" height="17.652"/>
	<rect x="141.219" y="282.527" style="fill:#591E00;" width="79.436" height="17.652"/>
	<rect x="70.698" y="317.832" style="fill:#591E00;" width="150.046" height="17.652"/>
	<rect x="70.698" y="353.137" style="fill:#591E00;" width="150.046" height="17.652"/>
	<rect x="70.698" y="388.441" style="fill:#591E00;" width="150.046" height="17.652"/>
	<rect x="70.698" y="423.746" style="fill:#591E00;" width="114.741" height="17.652"/>
	<rect x="370.789" y="176.612" style="fill:#591E00;" width="17.652" height="17.652"/>
	<rect x="326.658" y="282.527" style="fill:#591E00;" width="17.652" height="17.652"/>
	<rect x="361.963" y="282.527" style="fill:#591E00;" width="61.784" height="17.652"/>
	<rect x="291.353" y="317.832" style="fill:#591E00;" width="132.393" height="17.652"/>
	<rect x="291.353" y="353.137" style="fill:#591E00;" width="132.393" height="17.652"/>
	<rect x="291.353" y="388.441" style="fill:#591E00;" width="132.393" height="17.652"/>
	<rect x="291.353" y="423.746" style="fill:#591E00;" width="105.915" height="17.652"/>
</g>
<path style="fill:#FCBF29;" d="M291.309,114.82V92.428c21.792-19.497,23.663-52.975,4.166-74.776
	C275.978-4.149,242.5-6.011,220.699,13.486s-23.672,52.975-4.175,74.776c1.306,1.465,2.701,2.86,4.166,4.166v22.392H291.309z"/>
<path style="opacity:0.5;fill:#F28D01;enable-background:new    ;" d="M278.07,83.928c-29.25-0.035-52.931-23.769-52.896-53.019
	c0.009-8.597,2.109-17.052,6.117-24.652c-25.826,13.61-35.729,45.579-22.118,71.404c2.93,5.569,6.84,10.565,11.527,14.766v22.392
	h70.61V92.428c4.616-4.166,8.464-9.1,11.386-14.59C295.104,81.845,286.649,83.937,278.07,83.928z"/>
<g>
	<rect x="247.134" y="79.524" style="fill:#FFFFFF;" width="17.652" height="35.305"/>
	<path style="fill:#FFFFFF;" d="M256.004,88.341c-2.339,0-4.59-0.927-6.24-2.586l-26.479-26.479l12.48-12.48l20.239,20.239
		l20.238-20.239l12.48,12.48l-26.479,26.479C260.585,87.415,258.343,88.341,256.004,88.341z"/>
</g>
<rect x="194.177" y="106.003" style="fill:#591E00;" width="123.567" height="17.652"/>
<g>
</g>
<g>
</g>
<g>
</g>
<g>
</g>
<g>
</g>
<g>
</g>
<g>
</g>
<g>
</g>
<g>
</g>
<g>
</g>
<g>
</g>
<g>
</g>
<g>
</g>
<g>
</g>
<g>
</g>
</svg>
