<?xml version="1.0" encoding="iso-8859-1"?>
<!-- Generator: Adobe Illustrator 19.0.0, SVG Export Plug-In . SVG Version: 6.00 Build 0)  -->
<svg version="1.1" id="Capa_1" xmlns="http://www.w3.org/2000/svg" xmlns:xlink="http://www.w3.org/1999/xlink" x="0px" y="0px"
	 viewBox="0 0 512 512" style="enable-background:new 0 0 512 512;" xml:space="preserve">
<path style="fill:#11AD94;" d="M208.649,381.112L150.04,278.559c-5.332-9.346-20.713-9.346-26.045,0l-122,211
	c-2.651,4.644-2.637,10.342,0.044,14.971c2.696,4.628,7.632,7.47,12.979,7.47h122c8.291,0,15-6.709,15-15l51.05-94.424
	C210.26,398.46,212.765,388.305,208.649,381.112z"/>
<path style="fill:#19DEC1;" d="M509.918,504.8c-2.699,4.499-7.5,7.2-12.9,7.2h-360c-5.4,0-10.201-2.701-12.9-7.2
	c-2.701-4.801-2.701-10.201-0.3-15l89.101-164.5l59.7,24.901l32.399-43.2c3.001-3.602,7.5-5.7,12.001-5.7s9,2.098,12.001,5.7
	l32.399,43.2l59.7-24.901l89.101,164.5C512.618,494.599,512.618,499.999,509.918,504.8z"/>
<path style="fill:#787780;" d="M332.018,15v150c0,8.399-6.599,15-15,15s-15-6.601-15-15V15c0-8.401,6.599-15,15-15
	S332.018,6.599,332.018,15z"/>
<path style="fill:#57555C;" d="M332.018,15v150c0,8.399-6.599,15-15,15V0C325.419,0,332.018,6.599,332.018,15z"/>
<path style="fill:#17CEB4;" d="M509.918,504.8c-2.699,4.499-7.5,7.2-12.9,7.2h-180V301.3c4.501,0,9,2.098,12.001,5.7l32.399,43.2
	l59.7-24.901l89.101,164.5C512.618,494.599,512.618,499.999,509.918,504.8z"/>
<path style="fill:#FD4E26;" d="M447.517,94.499c4.501,4.2,5.7,10.501,3.301,16.201c-2.401,5.7-7.8,9.3-13.801,9.3h-135V15
	c0-8.401,6.599-15,15-15h120c6,0,11.4,3.6,13.801,9.3c2.399,5.7,1.199,11.999-3.301,16.199L413.318,60L447.517,94.499z"/>
<path style="fill:#FD3018;" d="M447.517,94.499c4.501,4.2,5.7,10.501,3.301,16.201c-2.401,5.7-7.8,9.3-13.801,9.3h-120V0h120
	c6,0,11.4,3.6,13.801,9.3c2.399,5.7,1.199,11.999-3.301,16.199L413.318,60L447.517,94.499z"/>
<path style="fill:#E5E5E5;" d="M421.117,325.3l-46.8,59.099c-2.699,3.9-7.2,6.601-11.999,6.601h-0.3c-4.799,0-9.3-2.1-12.001-6
	l-32.999-44.101l-33,44.101c-3.001,3.9-8.101,5.4-12.301,6c-4.799,0-9.3-2.701-11.999-6.601l-46.8-59.099l90.899-167.5
	c2.701-4.801,7.8-7.202,13.2-7.202s10.499,2.401,13.2,7.202L421.117,325.3z"/>
<path style="fill:#D9D9D9;" d="M421.117,325.3l-46.8,59.099c-2.699,3.9-7.2,6.601-11.999,6.601h-0.3c-4.799,0-9.3-2.1-12.001-6
	l-32.999-44.101v-190.3c5.4,0,10.499,2.401,13.2,7.202L421.117,325.3z"/>
<g>
</g>
<g>
</g>
<g>
</g>
<g>
</g>
<g>
</g>
<g>
</g>
<g>
</g>
<g>
</g>
<g>
</g>
<g>
</g>
<g>
</g>
<g>
</g>
<g>
</g>
<g>
</g>
<g>
</g>
</svg>
