<?xml version="1.0" encoding="iso-8859-1"?>
<!-- Generator: Adobe Illustrator 19.0.0, SVG Export Plug-In . SVG Version: 6.00 Build 0)  -->
<svg version="1.1" id="Capa_1" xmlns="http://www.w3.org/2000/svg" xmlns:xlink="http://www.w3.org/1999/xlink" x="0px" y="0px"
	 viewBox="0 0 490.667 490.667" style="enable-background:new 0 0 490.667 490.667;" xml:space="preserve">
<path style="fill:#CFD8DC;" d="M245.333,0C109.839,0,0,109.839,0,245.333s109.839,245.333,245.333,245.333
	s245.333-109.839,245.333-245.333C490.514,109.903,380.764,0.153,245.333,0z"/>
<g>
	<circle style="fill:#2196F3;" cx="245.333" cy="245.333" r="53.333"/>
	<path style="fill:#2196F3;" d="M202.667,149.333H288c5.891-0.003,10.664-4.781,10.661-10.672c-0.001-2.101-0.623-4.155-1.786-5.904
		l-42.667-64c-3.676-4.901-10.629-5.895-15.531-2.219c-0.841,0.631-1.588,1.378-2.219,2.219l-42.667,64
		c-3.264,4.904-1.934,11.526,2.971,14.79C198.512,148.711,200.566,149.332,202.667,149.333z"/>
	<path style="fill:#2196F3;" d="M288,341.333h-85.333c-5.891,0.003-10.664,4.781-10.661,10.672c0.001,2.101,0.623,4.155,1.786,5.904
		l42.667,64c3.268,4.901,9.891,6.225,14.792,2.957c1.171-0.781,2.176-1.786,2.957-2.957l42.667-64
		c3.264-4.904,1.934-11.526-2.971-14.79C292.155,341.956,290.101,341.334,288,341.333z"/>
</g>
<g>
</g>
<g>
</g>
<g>
</g>
<g>
</g>
<g>
</g>
<g>
</g>
<g>
</g>
<g>
</g>
<g>
</g>
<g>
</g>
<g>
</g>
<g>
</g>
<g>
</g>
<g>
</g>
<g>
</g>
</svg>
