<?xml version="1.0" encoding="iso-8859-1"?>
<!-- Generator: Adobe Illustrator 19.0.0, SVG Export Plug-In . SVG Version: 6.00 Build 0)  -->
<svg xmlns="http://www.w3.org/2000/svg" xmlns:xlink="http://www.w3.org/1999/xlink" version="1.1" id="Layer_1" x="0px" y="0px" viewBox="0 0 502.159 502.159" style="enable-background:new 0 0 502.159 502.159;" xml:space="preserve" width="512" height="512">
<g>
	<path style="fill:#FF6379;" d="M370.36,131.61c3.085,3.698,0.454,9.312-4.356,9.312H256.211V45.941h109.794   c4.809,0,7.441,5.626,4.356,9.312l-28.9,34.549c-1.758,2.098-1.758,5.161,0,7.27L370.36,131.61z"/>
	<path style="fill:#FF1F3E;" d="M370.36,131.61c3.085,3.698,0.454,9.312-4.356,9.312h-63.438V45.941h63.438   c4.809,0,7.441,5.626,4.356,9.312l-28.9,34.549c-1.758,2.098-1.758,5.161,0,7.27L370.36,131.61z"/>
	<path style="fill:#FFDF92;" d="M266.581,41.804v194.253c0,8.28-6.72,15-15,15c-8.28,0-15-6.72-15-15V41.804c0-8.28,6.72-15,15-15   C259.861,26.804,266.581,33.524,266.581,41.804z"/>
	<path style="fill:#FFCC41;" d="M266.581,41.804v194.253c0,8.28-6.72,15-15,15V26.804C259.861,26.804,266.581,33.524,266.581,41.804   z"/>
	<path style="fill:#2682FF;" d="M197.472,475.355H5.012c-3.7,0-6.12-3.87-4.5-7.19c64.134-131.25,43.289-88.582,92.23-188.78   c0.92-1.87,2.7-2.81,4.5-2.81c1.78,0,3.58,0.94,4.49,2.81C150.671,379.551,129.94,337.117,197.472,475.355z"/>
	<path style="fill:#046EFF;" d="M197.472,475.355H97.242v-198.78c1.78,0,3.58,0.94,4.49,2.81   C150.671,379.551,129.94,337.117,197.472,475.355z"/>
	<path style="fill:#8CBCFF;" d="M140.632,359.004h-86.78l38.89-79.62c0.92-1.87,2.7-2.81,4.5-2.81c1.907,0,3.639,1.058,4.49,2.81   C101.732,279.385,140.631,359.003,140.632,359.004z"/>
	<path style="fill:#6AA9FF;" d="M140.632,359.004h-43.39v-82.43c1.907,0,3.639,1.058,4.49,2.81   C101.732,279.385,140.631,359.003,140.632,359.004z"/>
	<path style="fill:#2682FF;" d="M497.152,475.355h-197.72c7.53-15.938,44.358-93.881,98.29-208.04c0.9-1.9,2.71-2.86,4.52-2.86   c1.8,0,3.62,0.96,4.52,2.86c47.867,101.348,26.696,56.532,94.91,200.9C503.242,471.535,500.822,475.355,497.152,475.355z"/>
	<path style="fill:#046EFF;" d="M497.152,475.355h-94.91v-210.9c1.8,0,3.62,0.96,4.52,2.86   c47.867,101.348,26.696,56.532,94.91,200.9C503.242,471.535,500.822,475.355,497.152,475.355z"/>
	<path style="fill:#6AA9FF;" d="M389.492,475.355h-276.94c3.007-6.354,58.17-122.908,133.95-283.04c1.796-3.811,7.242-3.816,9.04,0   C318.433,325.21,388.793,473.877,389.492,475.355z"/>
	<path style="fill:#4895FF;" d="M389.492,475.355h-138.47v-285.9c1.81,0,3.62,0.95,4.52,2.86   C318.433,325.21,388.793,473.877,389.492,475.355z"/>
	<path style="fill:#AED0FF;" d="M301.862,290.194h-101.68l46.32-97.88c1.796-3.811,7.242-3.816,9.04,0L301.862,290.194z"/>
	<path style="fill:#8CBCFF;" d="M301.862,290.194h-50.84v-100.74c1.81,0,3.62,0.95,4.52,2.86L301.862,290.194z"/>
	<path style="fill:#8CBCFF;" d="M444.622,347.475h-84.77l37.87-80.16c0.9-1.9,2.71-2.86,4.52-2.86c1.8,0,3.62,0.96,4.52,2.86   L444.622,347.475z"/>
	<path style="fill:#6AA9FF;" d="M444.622,347.475h-42.38v-83.02c1.8,0,3.62,0.96,4.52,2.86L444.622,347.475z"/>
</g>















</svg>
